<mxfile host="app.diagrams.net" agent="Mozilla/5.0 (Windows NT 10.0; Win64; x64) AppleWebKit/537.36 (KHTML, like Gecko) Chrome/128.0.0.0 Safari/537.36" version="24.7.6">
  <diagram name="페이지-1" id="rYAVUH2TDKSSuKzFjcl5">
    <mxGraphModel dx="1354" dy="558" grid="1" gridSize="10" guides="1" tooltips="1" connect="1" arrows="1" fold="1" page="0" pageScale="1" pageWidth="827" pageHeight="1169" math="0" shadow="0">
      <root>
        <mxCell id="0" />
        <mxCell id="1" parent="0" />
        <mxCell id="nsh-2TfmvnSO4DMiy_5A-10" value="" style="rounded=0;whiteSpace=wrap;html=1;fillColor=none;" vertex="1" parent="1">
          <mxGeometry x="-30" y="130" width="220" height="130" as="geometry" />
        </mxCell>
        <mxCell id="nsh-2TfmvnSO4DMiy_5A-15" value="" style="group" vertex="1" connectable="0" parent="1">
          <mxGeometry y="320" width="160" height="80" as="geometry" />
        </mxCell>
        <mxCell id="nsh-2TfmvnSO4DMiy_5A-1" value="Spring Cloud Gateway" style="rounded=0;whiteSpace=wrap;html=1;" vertex="1" parent="nsh-2TfmvnSO4DMiy_5A-15">
          <mxGeometry y="20" width="160" height="60" as="geometry" />
        </mxCell>
        <mxCell id="nsh-2TfmvnSO4DMiy_5A-13" value="Spring Boot" style="text;html=1;align=center;verticalAlign=middle;whiteSpace=wrap;rounded=0;fontSize=10;" vertex="1" parent="nsh-2TfmvnSO4DMiy_5A-15">
          <mxGeometry width="60" height="20" as="geometry" />
        </mxCell>
        <mxCell id="nsh-2TfmvnSO4DMiy_5A-16" value="" style="group" vertex="1" connectable="0" parent="1">
          <mxGeometry y="160" width="160" height="80" as="geometry" />
        </mxCell>
        <mxCell id="nsh-2TfmvnSO4DMiy_5A-11" value="Spring Cloud Eureka Server" style="rounded=0;whiteSpace=wrap;html=1;" vertex="1" parent="nsh-2TfmvnSO4DMiy_5A-16">
          <mxGeometry y="20" width="160" height="60" as="geometry" />
        </mxCell>
        <mxCell id="nsh-2TfmvnSO4DMiy_5A-14" value="Spring Boot" style="text;html=1;align=center;verticalAlign=middle;whiteSpace=wrap;rounded=0;fontSize=10;" vertex="1" parent="nsh-2TfmvnSO4DMiy_5A-16">
          <mxGeometry width="60" height="20" as="geometry" />
        </mxCell>
        <mxCell id="nsh-2TfmvnSO4DMiy_5A-22" value="/api/v0/member/**&lt;div style=&quot;font-size: 11px;&quot;&gt;/api/v0/auth/**&lt;/div&gt;" style="text;html=1;align=left;verticalAlign=middle;whiteSpace=wrap;rounded=0;fontSize=11;" vertex="1" parent="1">
          <mxGeometry x="380" y="150" width="100" height="30" as="geometry" />
        </mxCell>
        <mxCell id="nsh-2TfmvnSO4DMiy_5A-28" value="" style="group" vertex="1" connectable="0" parent="1">
          <mxGeometry x="480" y="120" width="130" height="100" as="geometry" />
        </mxCell>
        <mxCell id="nsh-2TfmvnSO4DMiy_5A-3" value="&lt;b&gt;User Service&lt;/b&gt;&lt;div&gt;&lt;br&gt;&lt;/div&gt;&lt;div&gt;Config Client&lt;/div&gt;&lt;div&gt;Eureka Client&lt;/div&gt;" style="rounded=0;whiteSpace=wrap;html=1;align=center;" vertex="1" parent="nsh-2TfmvnSO4DMiy_5A-28">
          <mxGeometry y="20" width="130" height="80" as="geometry" />
        </mxCell>
        <mxCell id="nsh-2TfmvnSO4DMiy_5A-12" value="Spring Boot" style="text;html=1;align=center;verticalAlign=middle;whiteSpace=wrap;rounded=0;fontSize=10;" vertex="1" parent="nsh-2TfmvnSO4DMiy_5A-28">
          <mxGeometry width="60" height="20" as="geometry" />
        </mxCell>
        <mxCell id="nsh-2TfmvnSO4DMiy_5A-31" style="edgeStyle=orthogonalEdgeStyle;rounded=0;orthogonalLoop=1;jettySize=auto;html=1;entryX=0;entryY=0.5;entryDx=0;entryDy=0;" edge="1" parent="1" source="nsh-2TfmvnSO4DMiy_5A-1" target="nsh-2TfmvnSO4DMiy_5A-3">
          <mxGeometry relative="1" as="geometry" />
        </mxCell>
        <mxCell id="nsh-2TfmvnSO4DMiy_5A-33" value="" style="group" vertex="1" connectable="0" parent="1">
          <mxGeometry x="850" y="320" width="160" height="80" as="geometry" />
        </mxCell>
        <mxCell id="nsh-2TfmvnSO4DMiy_5A-34" value="Spring Config Server" style="rounded=0;whiteSpace=wrap;html=1;" vertex="1" parent="nsh-2TfmvnSO4DMiy_5A-33">
          <mxGeometry y="20" width="160" height="60" as="geometry" />
        </mxCell>
        <mxCell id="nsh-2TfmvnSO4DMiy_5A-35" value="Spring Boot" style="text;html=1;align=center;verticalAlign=middle;whiteSpace=wrap;rounded=0;fontSize=10;" vertex="1" parent="nsh-2TfmvnSO4DMiy_5A-33">
          <mxGeometry width="60" height="20" as="geometry" />
        </mxCell>
      </root>
    </mxGraphModel>
  </diagram>
</mxfile>
